<svg version="1.1" id="Layer_1" xmlns="http://www.w3.org/2000/svg" xmlns:xlink="http://www.w3.org/1999/xlink" x="0px" y="0px"
	 width="100%" viewBox="0 0 1024 1024" enable-background="new 0 0 1024 1024" xml:space="preserve">
<path fill="#010101" opacity="1.000000" stroke="none" 
	d="
M668.000000,1025.000000 
	C445.333344,1025.000000 223.166672,1025.000000 1.000000,1025.000000 
	C1.000000,683.666687 1.000000,342.333344 1.000000,1.000000 
	C342.333344,1.000000 683.666687,1.000000 1025.000000,1.000000 
	C1025.000000,342.333344 1025.000000,683.666687 1025.000000,1025.000000 
	C906.166687,1025.000000 787.333313,1025.000000 668.000000,1025.000000 
M865.978271,759.234680 
	C869.789062,759.620972 873.605957,759.955078 877.409363,760.403931 
	C886.361328,761.460571 888.478027,759.404663 886.805359,750.561340 
	C882.204041,726.234863 870.907959,705.514954 852.469116,688.951416 
	C833.725891,672.114380 805.963135,671.226685 786.340759,686.407776 
	C785.225037,687.270996 783.670471,688.402161 782.500122,688.224243 
	C774.885864,687.066956 767.321411,685.581787 759.082458,684.084351 
	C761.044983,682.385498 762.477417,681.029602 764.026123,679.822937 
	C779.246521,667.963440 789.171692,652.096924 797.896790,635.292725 
	C799.712036,631.796631 798.745911,629.580139 795.271973,628.266663 
	C793.730408,627.683838 792.098450,627.295959 790.476501,626.978027 
	C783.367188,625.584412 776.246399,624.248779 769.579834,622.977844 
	C778.854431,568.240479 760.218567,527.034302 711.397827,500.588074 
	C717.843140,496.430328 724.659851,492.571808 730.889099,487.925659 
	C766.671082,461.237061 781.427917,415.877319 766.834656,374.123840 
	C752.470886,333.027039 723.324951,308.528961 679.712585,303.937836 
	C660.088318,301.871948 640.097168,303.225922 620.272095,303.170288 
	C613.915405,303.152435 610.515198,306.191071 610.392334,311.356659 
	C610.277283,316.192596 614.077209,319.311798 620.317810,319.330353 
	C636.316650,319.377991 652.337463,318.866241 668.306519,319.562500 
	C678.022766,319.986176 688.034119,321.022491 697.267883,323.872925 
	C740.726379,337.288422 766.288208,386.715179 752.782349,430.390900 
	C744.294983,457.837494 726.729492,477.381256 699.700989,487.242767 
	C690.354858,490.652740 679.963074,492.109894 669.958252,492.597351 
	C653.001465,493.423553 635.972595,492.800140 618.974304,492.717438 
	C615.063782,492.698395 612.164795,494.050842 610.819031,497.890198 
	C608.723999,503.866760 612.283691,508.710205 619.117798,508.746063 
	C636.615967,508.837769 654.117004,508.884766 671.613525,508.675659 
	C691.539062,508.437531 709.168274,515.307617 723.963867,527.829529 
	C751.892090,551.465942 761.078552,582.006348 753.712524,617.656372 
	C752.705933,622.527588 750.436279,625.575134 744.919556,627.505005 
	C725.691284,634.231445 712.340271,646.620239 710.589355,668.337585 
	C710.344604,671.373230 708.898804,672.905151 706.158386,674.142883 
	C693.325989,679.938904 679.829163,682.198914 665.873840,682.205078 
	C604.710754,682.232056 543.547729,682.235413 482.384674,682.232056 
	C480.966614,682.231934 479.548584,682.052429 477.961273,681.945190 
	C477.961273,678.731873 477.962494,675.915649 477.961060,673.099487 
	C477.955872,662.766785 478.047699,652.432678 477.902405,642.101990 
	C477.830658,636.999939 474.493195,633.534485 470.082489,633.415771 
	C465.664429,633.296875 462.384125,636.695740 462.004364,641.812073 
	C461.942810,642.641602 461.961304,643.477844 461.960754,644.310974 
	C461.951202,658.476807 461.915466,672.642700 461.948181,686.808472 
	C461.967316,695.101196 465.125610,698.164246 473.482422,698.163696 
	C537.145386,698.159119 600.808533,698.227600 664.471069,698.058960 
	C673.264282,698.035706 682.064819,696.949341 690.843079,696.147949 
	C700.788452,695.239929 710.712463,694.098572 720.645813,693.058655 
	C710.494934,710.248962 714.116882,725.210144 723.568726,739.660889 
	C734.423706,756.256897 750.998718,766.043274 767.535156,775.769592 
	C770.180054,777.325195 772.715698,776.697144 773.776001,773.278992 
	C774.709412,770.269531 775.792297,767.301392 776.606384,764.260742 
	C781.304688,746.711975 782.022217,729.307312 773.082520,712.807739 
	C769.836304,706.816284 765.308289,701.519348 761.052429,695.460388 
	C767.416687,696.399719 773.589355,697.310791 779.853210,698.235291 
	C781.412720,721.229309 794.187012,735.683411 813.325867,745.489624 
	C829.569641,753.812378 847.085754,757.406189 865.978271,759.234680 
M354.500000,319.928009 
	C370.261749,319.928009 386.023499,319.928009 402.101501,319.928009 
	C402.101501,322.877869 402.101135,325.185699 402.101532,327.493561 
	C402.121704,446.977081 402.141693,566.460571 402.164886,685.944092 
	C402.165192,687.609619 402.019348,689.303101 402.263855,690.935303 
	C402.937164,695.429749 406.215210,698.252258 410.414978,698.164734 
	C414.762604,698.074097 417.718201,695.320251 418.268158,690.681702 
	C418.463287,689.035889 418.385742,687.354431 418.385590,685.689209 
	C418.374817,569.372131 418.359222,453.055054 418.344208,336.737976 
	C418.343506,331.280670 418.344147,325.823364 418.344147,319.945312 
	C420.759613,319.945312 422.733734,319.945099 424.707825,319.945343 
	C466.035461,319.949951 507.363098,319.963043 548.690735,319.940796 
	C551.513245,319.939270 554.414307,320.036102 557.139648,319.445129 
	C561.264099,318.550629 563.184021,315.563660 563.030701,311.354523 
	C562.872803,307.020447 560.323853,304.701233 556.283325,303.977600 
	C554.500610,303.658295 552.628418,303.798065 550.796814,303.797974 
	C457.143097,303.793060 363.489380,303.795135 269.835663,303.800323 
	C268.169708,303.800415 266.492615,303.732666 264.839935,303.893799 
	C260.573669,304.309723 257.200592,307.737366 257.062500,311.660706 
	C256.933563,315.324036 260.468658,319.281494 264.518036,319.816742 
	C266.158936,320.033630 267.845703,319.927551 269.511597,319.927795 
	C297.507721,319.931946 325.503876,319.929688 354.500000,319.928009 
M235.330505,351.497498 
	C235.400375,356.657623 235.167175,361.845734 235.640213,366.968628 
	C235.990982,370.767334 238.143738,373.491669 242.563812,373.277283 
	C246.796616,373.071930 248.104874,370.195374 248.607162,366.622681 
	C248.722183,365.804504 248.667999,364.960541 248.667587,364.128448 
	C248.650177,328.813385 248.641205,293.498291 248.582764,258.183289 
	C248.579208,256.037231 248.845505,253.455231 247.796494,251.856888 
	C246.493225,249.871140 243.968323,247.537613 241.937607,247.506073 
	C239.955383,247.475281 237.547974,249.854584 236.062103,251.751480 
	C235.097717,252.982635 235.244293,255.245682 235.244110,257.046417 
	C235.241043,288.197052 235.292511,319.347717 235.330505,351.497498 
M217.203461,353.639343 
	C223.618576,354.486572 226.597168,352.396942 226.624252,346.138855 
	C226.727310,322.337677 226.651932,298.535095 226.505157,274.733917 
	C226.472549,269.444641 223.372086,266.195282 219.232346,266.362000 
	C215.426529,266.515259 213.050262,269.741577 213.039673,275.094421 
	C212.993271,298.563477 212.889313,322.033844 213.140961,345.500092 
	C213.168732,348.091187 215.338577,350.659332 217.203461,353.639343 
z"/>
<path fill="#F9F9F9" opacity="1.000000" stroke="none" 
	d="
M865.529297,759.187622 
	C847.085754,757.406189 829.569641,753.812378 813.325867,745.489624 
	C794.187012,735.683411 781.412720,721.229309 779.853210,698.235291 
	C773.589355,697.310791 767.416687,696.399719 761.052429,695.460388 
	C765.308289,701.519348 769.836304,706.816284 773.082520,712.807739 
	C782.022217,729.307312 781.304688,746.711975 776.606384,764.260742 
	C775.792297,767.301392 774.709412,770.269531 773.776001,773.278992 
	C772.715698,776.697144 770.180054,777.325195 767.535156,775.769592 
	C750.998718,766.043274 734.423706,756.256897 723.568726,739.660889 
	C714.116882,725.210144 710.494934,710.248962 720.645813,693.058655 
	C710.712463,694.098572 700.788452,695.239929 690.843079,696.147949 
	C682.064819,696.949341 673.264282,698.035706 664.471069,698.058960 
	C600.808533,698.227600 537.145386,698.159119 473.482422,698.163696 
	C465.125610,698.164246 461.967316,695.101196 461.948181,686.808472 
	C461.915466,672.642700 461.951202,658.476807 461.960754,644.310974 
	C461.961304,643.477844 461.942810,642.641602 462.004364,641.812073 
	C462.384125,636.695740 465.664429,633.296875 470.082489,633.415771 
	C474.493195,633.534485 477.830658,636.999939 477.902405,642.101990 
	C478.047699,652.432678 477.955872,662.766785 477.961060,673.099487 
	C477.962494,675.915649 477.961273,678.731873 477.961273,681.945190 
	C479.548584,682.052429 480.966614,682.231934 482.384674,682.232056 
	C543.547729,682.235413 604.710754,682.232056 665.873840,682.205078 
	C679.829163,682.198914 693.325989,679.938904 706.158386,674.142883 
	C708.898804,672.905151 710.344604,671.373230 710.589355,668.337585 
	C712.340271,646.620239 725.691284,634.231445 744.919556,627.505005 
	C750.436279,625.575134 752.705933,622.527588 753.712524,617.656372 
	C761.078552,582.006348 751.892090,551.465942 723.963867,527.829529 
	C709.168274,515.307617 691.539062,508.437531 671.613525,508.675659 
	C654.117004,508.884766 636.615967,508.837769 619.117798,508.746063 
	C612.283691,508.710205 608.723999,503.866760 610.819031,497.890198 
	C612.164795,494.050842 615.063782,492.698395 618.974304,492.717438 
	C635.972595,492.800140 653.001465,493.423553 669.958252,492.597351 
	C679.963074,492.109894 690.354858,490.652740 699.700989,487.242767 
	C726.729492,477.381256 744.294983,457.837494 752.782349,430.390900 
	C766.288208,386.715179 740.726379,337.288422 697.267883,323.872925 
	C688.034119,321.022491 678.022766,319.986176 668.306519,319.562500 
	C652.337463,318.866241 636.316650,319.377991 620.317810,319.330353 
	C614.077209,319.311798 610.277283,316.192596 610.392334,311.356659 
	C610.515198,306.191071 613.915405,303.152435 620.272095,303.170288 
	C640.097168,303.225922 660.088318,301.871948 679.712585,303.937836 
	C723.324951,308.528961 752.470886,333.027039 766.834656,374.123840 
	C781.427917,415.877319 766.671082,461.237061 730.889099,487.925659 
	C724.659851,492.571808 717.843140,496.430328 711.397827,500.588074 
	C760.218567,527.034302 778.854431,568.240479 769.579834,622.977844 
	C776.246399,624.248779 783.367188,625.584412 790.476501,626.978027 
	C792.098450,627.295959 793.730408,627.683838 795.271973,628.266663 
	C798.745911,629.580139 799.712036,631.796631 797.896790,635.292725 
	C789.171692,652.096924 779.246521,667.963440 764.026123,679.822937 
	C762.477417,681.029602 761.044983,682.385498 759.082458,684.084351 
	C767.321411,685.581787 774.885864,687.066956 782.500122,688.224243 
	C783.670471,688.402161 785.225037,687.270996 786.340759,686.407776 
	C805.963135,671.226685 833.725891,672.114380 852.469116,688.951416 
	C870.907959,705.514954 882.204041,726.234863 886.805359,750.561340 
	C888.478027,759.404663 886.361328,761.460571 877.409363,760.403931 
	C873.605957,759.955078 869.789062,759.620972 865.529297,759.187622 
M840.861877,692.551025 
	C825.747620,683.537048 804.122864,683.532654 796.510864,692.542053 
	C815.794067,699.228210 835.293396,715.430847 835.676392,725.999695 
	C821.185059,716.655029 808.220520,705.350891 790.422119,701.770325 
	C790.916748,704.607117 791.063110,707.069336 791.790222,709.346130 
	C795.693604,721.569763 804.994141,729.041565 815.460999,735.189087 
	C833.902771,746.020752 854.537048,748.096497 875.908325,749.885559 
	C870.340393,726.874573 860.740845,707.020264 840.861877,692.551025 
M760.133057,761.433228 
	C762.273621,762.819580 764.414246,764.205933 766.622437,765.636108 
	C779.508484,735.913757 762.475098,695.356384 738.041199,696.625732 
	C738.556335,698.053772 738.999817,699.479675 739.576111,700.849670 
	C743.819641,710.937439 748.202698,720.968750 752.268677,731.127258 
	C753.231750,733.533264 753.158447,736.354065 753.561890,738.984009 
	C753.033325,739.118652 752.504761,739.253296 751.976257,739.387939 
	C751.324829,738.937988 750.563416,738.589844 750.038330,738.022827 
	C740.108826,727.302795 732.681702,715.040466 728.005310,700.573914 
	C719.496826,715.541077 726.660828,732.655823 736.876648,742.364136 
	C743.948364,749.084595 751.954163,754.822205 760.133057,761.433228 
M744.602417,680.259094 
	C766.267151,672.375000 776.997864,654.227722 787.704590,635.490784 
	C755.809204,626.650452 725.834961,637.803345 720.004944,666.344055 
	C721.804810,665.727783 723.429871,665.535034 724.601868,664.703796 
	C728.530823,661.917053 732.203430,658.766968 736.149292,656.006470 
	C741.966736,651.936646 747.869080,647.976440 753.896667,644.229126 
	C755.037659,643.519714 756.930359,644.019470 758.476257,643.961365 
	C758.117188,645.462402 758.108826,647.177490 757.343811,648.430786 
	C750.864929,659.045898 742.573853,668.068848 732.806091,675.745972 
	C730.688538,677.410217 728.544189,679.040222 725.913025,681.071411 
	C732.667297,683.506287 738.272644,682.265808 744.602417,680.259094 
z"/>
<path fill="#FBFBFB" opacity="1.000000" stroke="none" 
	d="
M354.000000,319.928406 
	C325.503876,319.929688 297.507721,319.931946 269.511597,319.927795 
	C267.845703,319.927551 266.158936,320.033630 264.518036,319.816742 
	C260.468658,319.281494 256.933563,315.324036 257.062500,311.660706 
	C257.200592,307.737366 260.573669,304.309723 264.839935,303.893799 
	C266.492615,303.732666 268.169708,303.800415 269.835663,303.800323 
	C363.489380,303.795135 457.143097,303.793060 550.796814,303.797974 
	C552.628418,303.798065 554.500610,303.658295 556.283325,303.977600 
	C560.323853,304.701233 562.872803,307.020447 563.030701,311.354523 
	C563.184021,315.563660 561.264099,318.550629 557.139648,319.445129 
	C554.414307,320.036102 551.513245,319.939270 548.690735,319.940796 
	C507.363098,319.963043 466.035461,319.949951 424.707825,319.945343 
	C422.733734,319.945099 420.759613,319.945312 418.344147,319.945312 
	C418.344147,325.823364 418.343506,331.280670 418.344208,336.737976 
	C418.359222,453.055054 418.374817,569.372131 418.385590,685.689209 
	C418.385742,687.354431 418.463287,689.035889 418.268158,690.681702 
	C417.718201,695.320251 414.762604,698.074097 410.414978,698.164734 
	C406.215210,698.252258 402.937164,695.429749 402.263855,690.935303 
	C402.019348,689.303101 402.165192,687.609619 402.164886,685.944092 
	C402.141693,566.460571 402.121704,446.977081 402.101532,327.493561 
	C402.101135,325.185699 402.101501,322.877869 402.101501,319.928009 
	C386.023499,319.928009 370.261749,319.928009 354.000000,319.928406 
z"/>
<path fill="#EFEFEF" opacity="1.000000" stroke="none" 
	d="
M235.331299,350.997925 
	C235.292511,319.347717 235.241043,288.197052 235.244110,257.046417 
	C235.244293,255.245682 235.097717,252.982635 236.062103,251.751480 
	C237.547974,249.854584 239.955383,247.475281 241.937607,247.506073 
	C243.968323,247.537613 246.493225,249.871140 247.796494,251.856888 
	C248.845505,253.455231 248.579208,256.037231 248.582764,258.183289 
	C248.641205,293.498291 248.650177,328.813385 248.667587,364.128448 
	C248.667999,364.960541 248.722183,365.804504 248.607162,366.622681 
	C248.104874,370.195374 246.796616,373.071930 242.563812,373.277283 
	C238.143738,373.491669 235.990982,370.767334 235.640213,366.968628 
	C235.167175,361.845734 235.400375,356.657623 235.331299,350.997925 
z"/>
<path fill="#F5F5F5" opacity="1.000000" stroke="none" 
	d="
M216.859207,353.438721 
	C215.338577,350.659332 213.168732,348.091187 213.140961,345.500092 
	C212.889313,322.033844 212.993271,298.563477 213.039673,275.094421 
	C213.050262,269.741577 215.426529,266.515259 219.232346,266.362000 
	C223.372086,266.195282 226.472549,269.444641 226.505157,274.733917 
	C226.651932,298.535095 226.727310,322.337677 226.624252,346.138855 
	C226.597168,352.396942 223.618576,354.486572 216.859207,353.438721 
z"/>
<path fill="#040404" opacity="1.000000" stroke="none" 
	d="
M841.168518,692.747192 
	C860.740845,707.020264 870.340393,726.874573 875.908325,749.885559 
	C854.537048,748.096497 833.902771,746.020752 815.460999,735.189087 
	C804.994141,729.041565 795.693604,721.569763 791.790222,709.346130 
	C791.063110,707.069336 790.916748,704.607117 790.422119,701.770325 
	C808.220520,705.350891 821.185059,716.655029 835.676392,725.999695 
	C835.293396,715.430847 815.794067,699.228210 796.510864,692.542053 
	C804.122864,683.532654 825.747620,683.537048 841.168518,692.747192 
z"/>
<path fill="#060606" opacity="1.000000" stroke="none" 
	d="
M759.837769,761.216064 
	C751.954163,754.822205 743.948364,749.084595 736.876648,742.364136 
	C726.660828,732.655823 719.496826,715.541077 728.005310,700.573914 
	C732.681702,715.040466 740.108826,727.302795 750.038330,738.022827 
	C750.563416,738.589844 751.324829,738.937988 751.976257,739.387939 
	C752.504761,739.253296 753.033325,739.118652 753.561890,738.984009 
	C753.158447,736.354065 753.231750,733.533264 752.268677,731.127258 
	C748.202698,720.968750 743.819641,710.937439 739.576111,700.849670 
	C738.999817,699.479675 738.556335,698.053772 738.041199,696.625732 
	C762.475098,695.356384 779.508484,735.913757 766.622437,765.636108 
	C764.414246,764.205933 762.273621,762.819580 759.837769,761.216064 
z"/>
<path fill="#070707" opacity="1.000000" stroke="none" 
	d="
M744.230225,680.403137 
	C738.272644,682.265808 732.667297,683.506287 725.913025,681.071411 
	C728.544189,679.040222 730.688538,677.410217 732.806091,675.745972 
	C742.573853,668.068848 750.864929,659.045898 757.343811,648.430786 
	C758.108826,647.177490 758.117188,645.462402 758.476257,643.961365 
	C756.930359,644.019470 755.037659,643.519714 753.896667,644.229126 
	C747.869080,647.976440 741.966736,651.936646 736.149292,656.006470 
	C732.203430,658.766968 728.530823,661.917053 724.601868,664.703796 
	C723.429871,665.535034 721.804810,665.727783 720.004944,666.344055 
	C725.834961,637.803345 755.809204,626.650452 787.704590,635.490784 
	C776.997864,654.227722 766.267151,672.375000 744.230225,680.403137 
z"/>
</svg>