<svg version="1.1" id="Layer_1" xmlns="http://www.w3.org/2000/svg" xmlns:xlink="http://www.w3.org/1999/xlink" x="0px" y="0px"
	 width="100%" viewBox="0 0 1024 1024" enable-background="new 0 0 1024 1024" xml:space="preserve">
<path fill="#000000" opacity="1.000000" stroke="none" 
	d="
M871.104553,761.260010 
	C849.671936,759.711304 829.390686,755.592224 810.823059,745.247253 
	C793.800537,735.763306 781.695984,722.586060 779.713074,702.211853 
	C779.478210,699.798767 777.979248,699.096313 776.165405,698.727905 
	C771.981567,697.878174 767.761169,697.208374 762.424805,696.265869 
	C767.706604,701.948853 771.960266,707.021423 774.806580,713.056519 
	C784.319153,733.226379 782.149353,753.493713 775.137451,773.745056 
	C773.744080,777.769409 770.261108,778.716858 767.017395,776.837036 
	C750.112305,767.039612 733.434021,756.881775 722.356689,739.982178 
	C713.675232,726.737488 710.826050,712.863464 717.675049,697.893005 
	C717.934875,697.324890 717.967468,696.652832 718.213806,695.543701 
	C710.329285,694.108276 702.852722,695.615784 695.373474,696.682556 
	C686.153442,697.997620 676.961853,699.358093 667.594360,699.349060 
	C603.600464,699.287598 539.606567,699.326843 475.612610,699.321777 
	C463.955811,699.320862 460.781555,696.127502 460.777863,684.517517 
	C460.773773,671.685425 460.782227,658.853271 460.755798,646.021179 
	C460.750641,643.505554 460.828430,641.011353 461.777039,638.645691 
	C463.383942,634.638428 466.384064,632.567566 470.692963,632.766174 
	C474.908051,632.960510 477.427612,635.476624 478.351898,639.433472 
	C478.876129,641.677673 479.070099,644.041321 479.088898,646.353821 
	C479.170319,656.352173 479.279816,666.354736 479.066833,676.348999 
	C478.978424,680.497131 480.448669,681.772095 484.558411,681.744446 
	C508.221771,681.585022 531.886719,681.664246 555.551147,681.663940 
	C593.047607,681.663391 630.544800,681.799622 668.040039,681.588074 
	C680.598938,681.517212 692.830811,679.096863 704.476013,674.077087 
	C707.824158,672.633850 709.431274,670.862305 709.905701,666.828674 
	C712.201355,647.310120 723.855713,634.554443 741.618591,628.025940 
	C749.693176,625.058228 752.802124,620.736816 754.240051,612.720154 
	C762.796875,565.015442 731.804077,518.344055 684.098450,510.692230 
	C679.683655,509.984131 675.132935,509.931549 670.643921,509.912567 
	C655.645813,509.849121 640.647034,509.951416 625.648560,509.958069 
	C623.320190,509.959076 620.973999,509.942719 618.666565,509.673309 
	C612.300537,508.929993 608.946289,505.525574 609.215149,500.285156 
	C609.478882,495.145355 613.420288,491.751862 619.579773,491.720673 
	C634.244690,491.646454 648.911865,491.569183 663.574829,491.754456 
	C673.610840,491.881287 683.495056,491.153473 693.259705,488.711426 
	C724.931519,480.790527 750.856201,449.822266 754.914246,417.311676 
	C760.380371,373.519196 731.188477,330.720673 686.858582,321.911041 
	C681.961243,320.937805 677.005127,320.353912 671.988525,320.359344 
	C654.490234,320.378357 636.991638,320.413849 619.493713,320.326996 
	C613.154358,320.295471 609.655090,317.025299 609.624023,311.554504 
	C609.597961,306.965179 612.353149,302.826050 616.871582,302.912903 
	C642.462158,303.404724 668.412537,299.279144 693.573425,305.336792 
	C734.357178,315.155701 760.011902,341.714813 770.111450,382.095062 
	C781.883362,429.161987 759.336304,476.363770 715.942688,498.633972 
	C715.077942,499.077759 714.245850,499.585052 712.635376,500.492920 
	C735.207214,512.165527 752.612793,528.248230 763.057190,551.079041 
	C773.429199,573.751587 775.922302,597.361328 770.561890,622.195129 
	C776.920288,623.409485 782.726990,624.509399 788.529175,625.632568 
	C790.161011,625.948425 791.791626,626.285828 793.402039,626.695007 
	C799.316284,628.197449 800.861450,631.099182 798.287598,636.563599 
	C790.236633,653.656067 779.576416,668.795166 764.706665,680.721130 
	C763.844116,681.412903 762.584351,681.785828 762.410034,683.590515 
	C769.164307,684.875610 775.937622,686.205078 782.730957,687.423279 
	C784.138062,687.675720 785.280640,686.708313 786.263733,685.811096 
	C803.165039,670.385559 833.313904,670.277710 853.147339,687.833252 
	C872.149597,704.653137 882.969543,725.924866 888.070374,750.359924 
	C889.921997,759.229675 887.693420,761.433350 878.585205,761.376587 
	C876.252441,761.362061 873.919983,761.310364 871.104553,761.260010 
M795.376526,715.043762 
	C800.560425,723.245911 807.555481,729.531616 815.933960,734.308899 
	C827.818237,741.085083 840.791992,744.592896 854.187134,746.654053 
	C860.685059,747.653931 867.180725,749.180054 873.693542,748.562683 
	C873.967407,747.823730 874.198669,747.507874 874.170471,747.217285 
	C874.090332,746.393616 873.963623,745.564514 873.750977,744.765259 
	C868.844299,726.323792 860.127869,710.116272 845.656921,697.363037 
	C838.867737,691.379761 830.997986,687.486572 821.907410,686.697388 
	C814.132324,686.022461 806.714172,687.351929 798.980896,691.828125 
	C801.409546,692.783691 802.667542,693.198669 803.857117,693.758911 
	C816.765320,699.837158 827.662292,708.354431 835.668457,720.292603 
	C836.729126,721.874084 838.278320,723.857727 836.239685,725.647034 
	C834.519226,727.157043 832.742737,725.784180 831.263611,724.760437 
	C828.800598,723.055847 826.431213,721.213196 824.056396,719.384521 
	C816.896118,713.870667 809.178223,709.286987 800.911194,705.658447 
	C798.398926,704.555725 795.848022,703.214844 792.702698,703.838867 
	C791.678223,707.873047 793.750916,711.041626 795.376526,715.043762 
M737.617859,741.873352 
	C745.862549,750.661560 755.445435,757.660461 765.834839,763.677124 
	C779.682739,740.566467 763.566956,699.315613 740.198853,698.216064 
	C741.726196,705.539551 744.595642,712.179504 747.902527,718.655701 
	C750.486206,723.715576 752.671814,728.931030 754.017395,734.453064 
	C754.438477,736.181274 754.893127,738.309631 752.706055,739.268677 
	C750.868896,740.074219 749.544983,738.701660 748.432129,737.444641 
	C743.564270,731.946106 738.947510,726.249756 735.596863,719.664429 
	C733.005371,714.571228 730.546875,709.410461 727.752441,703.715637 
	C726.236450,709.160522 725.009827,713.795288 725.780334,718.986755 
	C727.090576,727.814758 731.524536,734.829163 737.617859,741.873352 
M723.915588,657.410706 
	C723.446106,659.564514 721.598999,661.517578 723.018799,664.296570 
	C727.235779,662.370300 730.451721,659.246765 733.900269,656.477295 
	C739.479614,651.996399 744.784729,647.107056 751.393860,644.123962 
	C753.760437,643.055725 756.774902,641.323486 758.856079,643.489014 
	C761.163330,645.889832 758.648499,648.528503 757.247864,650.601929 
	C750.782349,660.173523 743.081482,668.657410 734.213440,676.086548 
	C732.429932,677.580750 730.126221,678.601196 728.778442,680.911743 
	C748.265808,684.644470 780.225586,659.332764 786.005920,635.745605 
	C773.684021,632.627930 761.400940,632.187683 749.191711,636.040527 
	C738.116760,639.535400 729.229248,645.839966 723.915588,657.410706 
z"/>
<path fill="#000000" opacity="1.000000" stroke="none" 
	d="
M401.726868,408.999939 
	C401.724731,381.334717 401.619690,354.168762 401.820007,327.005035 
	C401.854401,322.339783 400.354889,321.044769 395.835876,321.059662 
	C354.005280,321.197418 312.174011,321.146973 270.342957,321.137970 
	C267.852325,321.137451 265.326538,321.354492 262.922577,320.431854 
	C258.730560,318.823059 256.414429,315.908173 256.717773,311.272980 
	C257.008820,306.825470 259.619293,304.290192 263.777954,303.371460 
	C265.703918,302.946014 267.745697,302.923859 269.734985,302.923615 
	C363.396606,302.912781 457.058228,302.920044 550.719849,302.959473 
	C553.036255,302.960449 555.392090,303.146881 557.660217,303.596405 
	C561.749695,304.406921 563.956665,307.058990 564.300964,311.234222 
	C564.665955,315.659027 562.575439,318.558472 558.620605,320.215668 
	C556.094116,321.274323 553.387695,321.089661 550.723633,321.089905 
	C509.225891,321.093658 467.728180,321.091034 426.230438,321.098053 
	C419.360077,321.099213 419.362335,321.117004 419.362823,327.997559 
	C419.370941,447.991089 419.378571,567.984619 419.384674,687.978149 
	C419.384735,688.977905 419.433990,689.984558 419.338989,690.976318 
	C418.907227,695.483154 416.613098,698.449219 412.030914,699.194336 
	C407.701263,699.898376 404.021484,697.364868 402.490051,692.905212 
	C401.432220,689.824646 401.752808,686.635986 401.752106,683.484497 
	C401.731720,592.156311 401.731018,500.828156 401.726868,408.999939 
z"/>
</svg>