<svg version="1.1" id="Layer_1" xmlns="http://www.w3.org/2000/svg" xmlns:xlink="http://www.w3.org/1999/xlink" x="0px" y="0px"
	 width="100%" viewBox="0 0 1024 1024" enable-background="new 0 0 1024 1024" xml:space="preserve">
<path fill="#000000" opacity="1.000000" stroke="none" 
	d="
M775.896118,769.652649 
	C772.785583,778.146606 771.294861,778.935669 763.843506,774.645264 
	C747.134644,765.024231 731.356873,754.267334 721.197998,737.132812 
	C713.809753,724.671692 711.513611,711.788391 717.490112,698.079834 
	C717.738953,697.509216 717.732239,696.827271 717.930603,695.715027 
	C712.946350,695.218262 708.123840,694.614075 703.499695,695.914062 
	C690.216309,699.648376 676.708862,700.508179 662.980652,700.475159 
	C599.983765,700.323425 536.986267,700.416992 473.989014,700.409485 
	C463.010864,700.408203 459.846313,697.181763 459.832001,686.031982 
	C459.813843,671.865967 459.749908,657.699402 459.856079,643.534180 
	C459.909271,636.439392 462.875183,632.505676 468.264221,631.736633 
	C474.728577,630.814148 479.291870,634.636353 479.357727,641.357239 
	C479.468750,652.688965 479.525299,664.025452 479.300049,675.353882 
	C479.216400,679.560364 480.745819,680.771118 484.827942,680.764099 
	C547.991638,680.655579 611.155945,680.768982 674.319214,680.574158 
	C685.391113,680.540039 696.045837,677.672058 706.089722,672.830688 
	C707.968201,671.925232 709.414368,670.944153 709.642151,668.515442 
	C711.478455,648.940063 722.228333,635.317078 740.112366,628.909119 
	C749.960327,625.380554 752.450317,619.132568 753.547974,610.670288 
	C757.563110,579.716614 749.179443,552.992981 725.975281,531.549988 
	C710.913818,517.631653 693.064636,510.431458 672.483032,510.351654 
	C655.150696,510.284424 637.817383,510.410919 620.485718,510.282684 
	C612.703491,510.225159 608.238525,503.634369 610.983337,496.579987 
	C612.860718,491.754669 616.957153,490.731781 621.556274,490.727051 
	C638.055542,490.710022 654.561707,490.382080 671.052673,490.745117 
	C715.189758,491.716766 749.417786,454.867249 753.919922,417.449921 
	C759.105957,374.348907 732.713623,334.099091 691.135925,323.024719 
	C686.941040,321.907410 682.698303,321.219788 678.326294,321.230133 
	C660.160645,321.273102 641.994812,321.228851 623.829041,321.249969 
	C620.789673,321.253479 617.847290,320.987244 615.131897,319.456665 
	C611.371033,317.336700 609.718262,314.021881 610.218506,309.869324 
	C610.753906,305.424438 613.488464,302.591370 617.890564,301.779602 
	C620.659607,301.268982 623.524475,301.082886 626.346191,301.084991 
	C645.006348,301.099060 663.700806,300.362701 682.314087,301.791809 
	C701.756104,303.284576 719.191101,310.520660 734.270081,322.910522 
	C762.641846,346.222626 776.219788,376.675537 773.918396,413.018524 
	C771.528442,450.761475 752.763489,479.267639 719.901062,498.276215 
	C718.919983,498.843719 717.678162,499.042175 716.880127,500.764496 
	C720.491394,503.129364 724.243347,505.432526 727.835144,507.962982 
	C754.204346,526.540222 769.361389,551.818176 773.504456,583.851929 
	C774.953552,595.056030 774.354614,606.089417 772.443115,617.112488 
	C771.717529,621.296875 773.020691,623.143677 777.378967,623.715698 
	C782.967224,624.449280 788.502625,625.752441 793.976868,627.140991 
	C799.568054,628.559326 800.716553,631.290710 798.182007,636.893738 
	C792.993347,648.364441 785.819702,658.544250 777.760559,668.173706 
	C773.302307,673.500671 768.200195,678.153381 762.070984,683.248840 
	C769.562805,684.544434 775.896851,685.640991 782.231384,686.734558 
	C784.174744,687.070068 785.834534,686.483887 787.306946,685.210327 
	C802.791809,671.816467 831.717712,669.191284 853.294189,688.695923 
	C872.488831,706.047485 883.501587,727.714478 887.594116,753.080444 
	C888.375671,757.924316 886.099548,761.455505 881.374268,761.171753 
	C851.061890,759.351624 821.125977,755.993408 796.739624,735.002563 
	C787.476501,727.029236 781.328857,717.151672 779.645264,704.853088 
	C779.156189,701.280273 777.656311,698.883423 773.842468,698.635498 
	C770.935730,698.446533 768.168579,696.608337 764.639587,697.960266 
	C782.669617,719.570496 784.470032,743.646118 775.896118,769.652649 
M830.085083,723.521179 
	C818.703918,714.629395 806.389893,707.546753 792.151611,703.027893 
	C791.989258,709.452881 794.256897,714.022766 797.400330,718.183777 
	C804.375122,727.416382 813.284180,734.192078 823.968384,738.642456 
	C832.602295,742.238831 841.578918,744.785767 850.746948,746.380554 
	C858.345337,747.702209 866.007263,749.391052 874.103821,748.465210 
	C874.007629,747.329102 874.047363,746.506287 873.857056,745.740784 
	C869.819031,729.502808 863.157104,714.549988 851.361816,702.412720 
	C841.679504,692.449768 830.486206,685.261047 815.748840,686.413452 
	C810.071045,686.857544 804.544373,688.040344 799.088623,691.852051 
	C805.884949,694.835083 811.807190,697.518250 816.968018,701.428040 
	C824.409180,707.065552 831.559265,713.062561 835.924683,721.622559 
	C836.521118,722.792053 837.374390,724.007324 836.097473,725.246277 
	C835.016785,726.294922 833.923645,725.580750 832.882935,725.108459 
	C832.127380,724.765503 831.415466,724.326355 830.085083,723.521179 
M741.158508,697.570435 
	C739.204407,698.143494 740.312866,699.498108 740.609253,700.382751 
	C741.611145,703.374451 742.861694,706.281799 743.919189,709.256226 
	C746.977295,717.857544 751.959717,725.715149 753.792114,734.785950 
	C754.115845,736.388916 754.780151,738.285522 752.847534,739.227722 
	C750.974365,740.140991 749.727905,738.587097 748.656921,737.356079 
	C744.068176,732.081543 739.767944,726.602112 736.067139,720.634583 
	C732.875977,715.488770 730.477051,709.936829 727.593689,703.495728 
	C724.583130,712.347656 724.296814,719.974792 727.740906,727.445129 
	C735.606567,744.505920 750.419678,754.203857 765.655701,763.640747 
	C776.238281,743.183716 770.000061,706.090393 741.158508,697.570435 
M722.377563,663.911438 
	C728.419128,661.260498 732.949036,656.510437 738.019043,652.531494 
	C743.307617,648.380981 748.889587,644.844727 755.281067,642.678528 
	C756.732300,642.186646 758.226868,641.766663 759.431641,643.169800 
	C760.479248,644.389893 759.885559,645.647217 759.422180,646.919739 
	C758.323975,649.935059 756.478943,652.501465 754.671265,655.101013 
	C747.981201,664.721802 739.599365,672.712219 730.111389,680.023010 
	C751.084290,684.281128 774.847168,661.831299 785.576233,636.303223 
	C776.036621,633.105957 766.342651,632.451111 756.557312,634.417236 
	C739.805908,637.782959 726.670227,645.603821 722.377563,663.911438 
z"/>
<path fill="#000000" opacity="1.000000" stroke="none" 
	d="
M399.820282,675.997498 
	C399.834137,559.848938 399.848358,444.199799 399.860413,328.550690 
	C399.861206,321.219208 399.853302,321.214600 392.426453,321.214569 
	C352.599182,321.214447 312.771881,321.220276 272.944611,321.211365 
	C269.953827,321.210693 266.943146,321.405029 264.033234,320.389191 
	C259.620270,318.848694 256.633942,314.717041 256.997467,310.575134 
	C257.404999,305.931976 260.900726,302.397797 265.813019,301.798737 
	C267.293427,301.618164 268.808044,301.693665 270.307007,301.693665 
	C363.292908,301.694336 456.278809,301.698822 549.264709,301.706757 
	C551.925232,301.706970 554.553650,301.711456 557.181458,302.475800 
	C561.904297,303.849487 564.011353,307.178802 564.074402,311.736450 
	C564.140381,316.510132 561.459167,319.587646 556.833008,320.601898 
	C554.425110,321.129883 551.882507,321.208038 549.400635,321.209229 
	C509.073425,321.228607 468.746155,321.232056 428.419037,321.168060 
	C417.869507,321.151337 419.876343,321.637451 419.857849,329.674835 
	C419.784576,361.498077 419.571503,393.328064 419.665466,425.144531 
	C419.782104,464.633087 419.743805,504.123291 419.855469,543.612305 
	C419.987427,590.271484 419.901062,636.931396 419.880859,683.590942 
	C419.879700,686.250183 419.771881,688.927429 419.452332,691.564697 
	C418.757568,697.298462 415.834961,700.208191 410.629425,700.622375 
	C405.533997,701.027832 401.597412,698.086304 400.329437,692.440063 
	C399.151733,687.195801 400.033905,681.813171 399.820282,675.997498 
z"/>
<path fill="#000000" opacity="1.000000" stroke="none" 
	d="
M251.034561,343.000000 
	C251.039230,350.155334 251.152313,356.812927 251.013382,363.465271 
	C250.923904,367.749542 250.043945,371.861542 245.594040,373.907928 
	C240.150620,376.411194 234.250717,373.312958 232.986160,367.257019 
	C232.617279,365.490509 232.681229,363.617096 232.680450,361.792633 
	C232.666122,327.683136 232.675003,293.573639 232.667419,259.464142 
	C232.666855,256.959717 232.631561,254.467651 233.797913,252.145172 
	C235.622208,248.512665 238.542572,246.535492 242.612686,246.899323 
	C246.710159,247.265594 249.406891,249.719955 250.191040,253.720734 
	C250.794113,256.797638 251.027359,259.991333 251.033524,263.133881 
	C251.085541,289.589142 251.047256,316.044617 251.034561,343.000000 
z"/>
<path fill="#000000" opacity="1.000000" stroke="none" 
	d="
M210.702530,290.000854 
	C210.704544,284.843872 210.613861,280.184326 210.732117,275.530029 
	C210.891083,269.272858 214.219299,265.633514 219.562317,265.638550 
	C224.966843,265.643646 228.307678,269.243744 228.324875,275.518372 
	C228.388672,298.804382 228.390747,322.090698 228.330261,345.376709 
	C228.313705,351.749512 225.106262,355.238739 219.630753,355.293304 
	C214.357758,355.345825 210.844543,351.728668 210.791016,345.388672 
	C210.636566,327.093689 210.715546,308.796783 210.702530,290.000854 
z"/>
</svg>