<svg viewBox="0 0 120 100" fill="none" xmlns="http://www.w3.org/2000/svg">
  <g stroke="currentColor" stroke-width="3.5" stroke-linecap="round" stroke-linejoin="round">
    <line x1="15" y1="25" x2="15" y2="45" />
    <line x1="22" y1="20" x2="22" y2="50" />
    <path d="M22 25 H 55" />
    <line x1="55" y1="25" x2="55" y2="85" />
    <path d="M55 25 H 85 C 105 25, 105 55, 85 55 H 55" />
    <path d="M55 55 H 80 C 100 55, 100 85, 80 85 H 50" />
    <path d="M95 75 Q 110 70, 115 85 Q 100 90, 95 75 Z" />
    <path d="M92 82 Q 105 85, 100 95 Q 90 92, 92 82 Z" />
    <path d="M85 80 Q 90 78, 95 75" />
    <path d="M85 80 Q 88 84, 92 82" />
  </g>
</svg>
