<?xml version="1.0" encoding="UTF-8"?>
<svg id="Layer_1" data-name="Layer 1" xmlns="http://www.w3.org/2000/svg" viewBox="0 0 344.68 356.94">
  <defs>
    <style>
      .cls-1 {
        fill: #231f20;
      }
    </style>
  </defs>
  <g>
    <g>
      <path class="cls-1" d="M80.82,252.81h8.69c.22,0,.48.25.48.49v15.12c0,.21-.22.45-.41.45h-7.18c-.19,0-.36-.23-.36-.41v-14.23h-1.21v-1.42ZM88.57,267.43v-13.21h-5.11v13.21h5.11Z"/>
      <path class="cls-1" d="M97,254.23h-1.25v-1.42h2.22c.18,0,.43.28.43.46v7.64h-1.39v-6.69Z"/>
      <path class="cls-1" d="M104.12,267.43h2.08c.48,0,.94-.34.94-.99v-12.22h-2.29v-1.41h3.25c.21,0,.44.28.44.48v13.62c0,1.17-.77,1.96-1.83,1.96h-2.59v-1.43Z"/>
      <path class="cls-1" d="M115.61,254.23h-1.28v-1.42h2.31c.18,0,.43.27.43.46v15.59h-1.46v-14.64Z"/>
      <path class="cls-1" d="M128.39,267.43h2.27v-11.94c-.01-.75-.44-1.29-1.08-1.3-.25-.01-.35,0-.53.09l-3.42,1.59-.22,13h-1.43l.26-14.64h-1.37v-1.42s2.34-.01,2.34-.01c.17,0,.39.22.39.39v1.21s3.06-1.41,3.06-1.41c.38-.18.53-.23.79-.23h.71c1.05,0,1.92.84,1.92,2.25v13.54c.01.13-.17.32-.31.32h-3.37v-1.43Z"/>
      <path class="cls-1" d="M139.07,254.23h-1.25v-1.42h2.22c.18,0,.43.28.43.46v7.64h-1.39v-6.69Z"/>
      <path class="cls-1" d="M147.45,252.81h1.41c.23,0,.39.15.48.39l2.67,6.96c1.37-.75,1.77-1.21,1.77-2.35v-5h1.42v5.25c0,1.51-.67,2.23-1.82,2.93l-.86.53,2.75,7.28v.06h-1.5l-4.3-11.37c-.25-.66-.54-1.42-1.01-2.99-.04-.08-.18-.07-.21.01.12,1.69.17,2.78.17,3.32l.03,11.04h-1.37v-15.67c0-.18.18-.39.37-.39Z"/>
      <path class="cls-1" d="M177.43,252.81h7.49c.17,0,.41.26.41.45v15.61s-1.45,0-1.45,0v-14.64h-6.46v-1.42ZM177.47,257.69h1.45v11.18h-1.46v-11.18Z"/>
      <path class="cls-1" d="M191.15,267.43h2.08c.48,0,.94-.34.94-.99v-12.22h-2.29v-1.41h3.25c.21,0,.44.28.44.48v13.62c0,1.17-.77,1.96-1.83,1.96h-2.59v-1.43Z"/>
      <path class="cls-1" d="M202.65,254.23h-1.28v-1.42h2.31c.18,0,.43.27.43.46v15.59h-1.46v-14.64Z"/>
      <path class="cls-1" d="M209.9,252.81h5.01v1.41h-1.78l.03,14.65h-1.46l.04-14.65h-1.83v-1.41Z"/>
      <path class="cls-1" d="M220.31,267.46h1.23c.53,0,.92-.36.92-.96v-12.28h-1.39v-1.42h8.56c.19,0,.4.27.4.46v15.59h-1.43v-14.64h-4.74v12.78c0,1.1-.71,1.86-1.78,1.86h-1.76v-1.41Z"/>
    </g>
    <circle class="cls-1" cx="164.73" cy="260.78" r="1.77"/>
  </g>
  <g>
    <polygon class="cls-1" points="181.48 108.73 80.2 108.73 80.2 110.29 130.03 110.29 130.03 239.1 131.65 239.1 131.65 110.29 181.48 110.29 181.48 108.73"/>
    <rect class="cls-1" x="73.23" y="89.69" width="1.56" height="39.65"/>
    <rect class="cls-1" x="65.74" y="96.13" width="1.56" height="26.76"/>
    <path class="cls-1" d="M270.76,235.18c-3.55-.28-9.56-.46-13.12,4.13-.56-.16-1.18-.25-1.18-.25-2.27-.48-4.74-.85-7.36-1.1l-4.36-.42,3.59-2.5c4.29-2.99,8.36-8.3,12.12-15.78l.2-.4-.43-.12c-3.35-.95-6.48-1.42-9.33-1.42-.51,0-1,.02-1.49.05l1.19-4.25c.2-.71.36-1.42.46-2.15.22-1.59.33-3.22.33-4.84,0-9.16-3.18-16.79-9.73-23.3-2.14-2.13-4.42-3.92-6.77-5.32l-6-3.58,6-3.58c2.35-1.4,4.63-3.19,6.77-5.32,6.55-6.51,9.73-14.13,9.73-23.3s-3.04-16.43-9.29-22.85c-6.41-6.58-15.31-10.14-24.49-10.14h-17.67v1.56h18.25c8.68,0,16.19,3.09,22.32,9.19,6.14,6.11,9.25,13.58,9.25,22.22,0,8.34-3.32,16.33-9.23,22.21-6.14,6.11-13.66,9.21-22.34,9.21h-18.25v1.56h18.25c8.68,0,16.19,3.09,22.32,9.19,6.14,6.11,9.25,13.58,9.25,22.23,0,2.88-1.52,8.81-2.21,11.45-2.51.37-4.84,1.07-6.79,2.38-7.99,5.39-7.64,11.58-7.18,13.7-4.91,2.73-9.06,3.65-15.39,3.89h-66.46v-16.29h-1.62v17.85c11.03,0,82.25-.8,85.27-.82l3.37-.02-2.1,2.63c-.46.58-.83,1.2-1.11,1.86-.3.72-.66,1.91-.66,3.49,0,4.64,2.98,11.92,17.22,20.24l.38.22.15-.42c2.74-7.77,2.75-14.33.03-19.49-1.06-2.02-2.52-3.76-4.32-5.19l-4.33-3.43,5.5.56c2.21.23,4.37.55,6.41.97l1.46.3s-.45,1.65-.28,2.76c2.76,17.97,31.18,17.98,33.7,18.16,0-7.63-8.98-24.87-20.05-25.75ZM229.02,237.58c2.27-.62,4.09-1.4,5.66-2.25,0,0,1.75,1.91,2.41,2.22-.34,0-6.67.03-8.08.03ZM252.01,247.14c1.3,2.46,1.95,5.29,1.95,8.42,0,2.47-.42,5.19-1.24,8.06l-.59,2.06-1.81-1.14c-16.5-10.34-15.35-18.48-14.09-21.5,1.12-2.69,3.42-3.91,5.08-3.91h.05c.27,0,.52.04.77.1,1.56.42,6.9,2.23,9.89,7.91ZM238.84,237.58c-1.56-.3-2.53-1.34-3.54-2.57,4.46-2.36,10.55-9.14,11.54-11.35-3.12,2.61-11.17,9.16-12.63,9.64-.84-3.9,1.45-9.37,6.93-12.72,2.74-1.67,5.7-2.52,9.75-2.52.75,0,4.45.29,6.65.78l2.09.46-1.02,1.88c-4.5,8.31-9.11,12.77-12.95,14.79-2.22,1.17-5.31,1.91-6.83,1.62ZM287.58,259.74c-26.18-1.91-31.1-14.11-29.33-19.54.85.33,1.96.6,1.96.6,4.99,1.52,10.28,4.57,12.79,7.45,0,0-5.09-5.87-12.36-8.11,0,0-1.4-.44-2.19-.68,1.17-1.25,3.24-2.67,6.54-3.19,4.41-.69,7.96-.04,10.15,1.08,5.85,3,12.42,11.65,14.13,20.48l.4,2.06-2.09-.15Z"/>
    <polygon class="cls-1" points="246.14 253.89 246.14 253.89 246.14 253.89 246.14 253.89"/>
    <path class="cls-1" d="M246.14,253.89l-6.38-11.88c.75,4.5,3.2,8.66,6.38,11.88Z"/>
  </g>
</svg>